<svg width="1194" height="286" viewBox="0 0 1194 286" fill="none" xmlns="http://www.w3.org/2000/svg">
<path d="M45.3 8.99999H131.1C141.9 8.99999 151.1 11.8 158.7 17.4C166.5 23 172.4 30.3 176.4 39.3C180.4 48.3 182.4 57.8 182.4 67.8C182.4 77.6 180.3 87.5 176.1 97.5C171.9 107.3 166.1 116.2 158.7 124.2C151.5 132.2 143 138.6 133.2 143.4C123.6 148.2 113.4 150.6 102.6 150.6H56.1L41.1 222H2.12342e-07L45.3 8.99999ZM107.4 114.3C111.6 114.3 115.6 113.2 119.4 111C123.4 108.8 126.9 105.8 129.9 102C133.1 98 135.6 93.4 137.4 88.2C139.2 83 140.1 77.3 140.1 71.1C140.1 65.7 139.2 61.1 137.4 57.3C135.8 53.3 133.5 50.3 130.5 48.3C127.5 46.3 124.2 45.3 120.6 45.3H78.6L63.9 114.3H107.4ZM245.618 225C230.418 225 217.918 222 208.118 216C198.518 210 191.418 202 186.818 192C182.218 181.8 179.918 170.6 179.918 158.4C179.918 145.6 182.218 133.4 186.818 121.8C191.618 110.2 198.318 99.9 206.918 90.9C215.518 81.9 225.618 74.9 237.218 69.9C249.018 64.7 261.918 62.1 275.918 62.1C291.118 62.1 303.518 65.1 313.118 71.1C322.918 77.1 330.118 85.1 334.718 95.1C339.318 105.1 341.618 116.3 341.618 128.7C341.618 141.5 339.218 153.7 334.418 165.3C329.818 176.9 323.218 187.2 314.618 196.2C306.018 205.2 295.818 212.3 284.018 217.5C272.418 222.5 259.618 225 245.618 225ZM251.618 190.8C257.818 190.8 263.818 189.4 269.618 186.6C275.418 183.8 280.518 179.8 284.918 174.6C289.518 169.4 293.118 163.3 295.718 156.3C298.518 149.3 299.918 141.7 299.918 133.5C299.918 126.1 298.718 119.6 296.318 114C294.118 108.4 290.718 104.1 286.118 101.1C281.718 97.9 276.318 96.3 269.918 96.3C263.718 96.3 257.718 97.7 251.918 100.5C246.318 103.3 241.218 107.3 236.618 112.5C232.018 117.7 228.318 123.9 225.518 131.1C222.918 138.1 221.618 145.7 221.618 153.9C221.618 161.1 222.718 167.5 224.918 173.1C227.318 178.7 230.718 183.1 235.118 186.3C239.718 189.3 245.218 190.8 251.618 190.8ZM383.299 64.8H420.199L412.999 98.4C420.599 87.6 429.099 79.1 438.499 72.9C448.099 66.5 457.499 63.3 466.699 63.3C468.699 63.3 470.199 63.4 471.199 63.6C472.399 63.6 473.299 63.7 473.899 63.9L466.399 99.6C454.999 99.6 444.199 102 433.999 106.8C423.999 111.4 416.099 118.1 410.299 126.9L390.199 222H349.999L383.299 64.8ZM478.678 197.1C478.678 195.3 478.778 193.5 478.978 191.7C479.178 189.9 479.478 188 479.878 186L499.078 95.7H479.578L486.178 64.8H505.378L516.178 13.8H556.378L545.578 64.8H577.078L570.478 95.7H539.278L522.778 172.5C522.578 173.3 522.378 174.1 522.178 174.9C522.178 175.7 522.178 176.5 522.178 177.3C522.178 181.1 523.278 183.8 525.478 185.4C527.678 187 530.378 187.8 533.578 187.8C536.178 187.8 538.778 187.5 541.378 186.9C544.178 186.3 546.778 185.5 549.178 184.5C551.578 183.5 553.678 182.7 555.478 182.1L556.678 213.9C552.678 215.7 548.178 217.5 543.178 219.3C538.178 220.9 532.978 222.2 527.578 223.2C522.178 224.2 516.778 224.7 511.378 224.7C501.978 224.7 494.178 222.6 487.978 218.4C481.778 214 478.678 206.9 478.678 197.1ZM608.892 103.8H589.692L596.292 73.2H615.492L617.592 63.6C620.192 50.6 624.592 39.4 630.792 30C636.992 20.4 644.392 13 652.992 7.79999C661.792 2.59999 671.292 -2.86102e-06 681.492 -2.86102e-06C687.692 -2.86102e-06 693.792 0.799993 699.792 2.39998C705.792 3.99999 711.492 6.29999 716.892 9.29998L702.792 39.6C700.192 38 697.092 36.7 693.492 35.7C689.892 34.5 686.492 33.9 683.292 33.9C677.092 33.9 671.792 36.3 667.392 41.1C663.192 45.9 660.092 52.9 658.092 62.1L655.692 73.2H691.692L685.092 103.8H649.092L610.392 285.6H570.192L608.892 103.8ZM753.626 225C738.426 225 725.926 222 716.126 216C706.526 210 699.426 202 694.826 192C690.226 181.8 687.926 170.6 687.926 158.4C687.926 145.6 690.226 133.4 694.826 121.8C699.626 110.2 706.326 99.9 714.926 90.9C723.526 81.9 733.626 74.9 745.226 69.9C757.026 64.7 769.926 62.1 783.926 62.1C799.126 62.1 811.526 65.1 821.126 71.1C830.926 77.1 838.126 85.1 842.726 95.1C847.326 105.1 849.626 116.3 849.626 128.7C849.626 141.5 847.226 153.7 842.426 165.3C837.826 176.9 831.226 187.2 822.626 196.2C814.026 205.2 803.826 212.3 792.026 217.5C780.426 222.5 767.626 225 753.626 225ZM759.626 190.8C765.826 190.8 771.826 189.4 777.626 186.6C783.426 183.8 788.526 179.8 792.926 174.6C797.526 169.4 801.126 163.3 803.726 156.3C806.526 149.3 807.926 141.7 807.926 133.5C807.926 126.1 806.726 119.6 804.326 114C802.126 108.4 798.726 104.1 794.126 101.1C789.726 97.9 784.326 96.3 777.926 96.3C771.726 96.3 765.726 97.7 759.926 100.5C754.326 103.3 749.226 107.3 744.626 112.5C740.026 117.7 736.326 123.9 733.526 131.1C730.926 138.1 729.626 145.7 729.626 153.9C729.626 161.1 730.726 167.5 732.926 173.1C735.326 178.7 738.726 183.1 743.126 186.3C747.726 189.3 753.226 190.8 759.626 190.8ZM895.507 224.4C885.507 224.4 877.707 222.1 872.107 217.5C866.707 212.7 864.007 205.9 864.007 197.1C864.007 195.3 864.107 193.5 864.307 191.7C864.707 189.7 865.007 187.7 865.207 185.7L904.207 2.99999H944.107L908.407 171.6C908.207 172.6 908.007 173.6 907.807 174.6C907.807 175.6 907.807 176.6 907.807 177.6C907.807 185.8 911.907 189.9 920.107 189.9C922.307 189.9 924.807 189.5 927.607 188.7C930.607 187.9 933.407 186.9 936.007 185.7L934.807 216.3C929.207 218.9 922.707 220.9 915.307 222.3C907.907 223.7 901.307 224.4 895.507 224.4ZM983.885 64.8H1024.09L990.785 222H950.585L983.885 64.8ZM997.085 2.99999H1037.29L1028.89 42.9H988.685L997.085 2.99999ZM1097.86 225C1082.66 225 1070.16 222 1060.36 216C1050.76 210 1043.66 202 1039.06 192C1034.46 181.8 1032.16 170.6 1032.16 158.4C1032.16 145.6 1034.46 133.4 1039.06 121.8C1043.86 110.2 1050.56 99.9 1059.16 90.9C1067.76 81.9 1077.86 74.9 1089.46 69.9C1101.26 64.7 1114.16 62.1 1128.16 62.1C1143.36 62.1 1155.76 65.1 1165.36 71.1C1175.16 77.1 1182.36 85.1 1186.96 95.1C1191.56 105.1 1193.86 116.3 1193.86 128.7C1193.86 141.5 1191.46 153.7 1186.66 165.3C1182.06 176.9 1175.46 187.2 1166.86 196.2C1158.26 205.2 1148.06 212.3 1136.26 217.5C1124.66 222.5 1111.86 225 1097.86 225ZM1103.86 190.8C1110.06 190.8 1116.06 189.4 1121.86 186.6C1127.66 183.8 1132.76 179.8 1137.16 174.6C1141.76 169.4 1145.36 163.3 1147.96 156.3C1150.76 149.3 1152.16 141.7 1152.16 133.5C1152.16 126.1 1150.96 119.6 1148.56 114C1146.36 108.4 1142.96 104.1 1138.36 101.1C1133.96 97.9 1128.56 96.3 1122.16 96.3C1115.96 96.3 1109.96 97.7 1104.16 100.5C1098.56 103.3 1093.46 107.3 1088.86 112.5C1084.26 117.7 1080.56 123.9 1077.76 131.1C1075.16 138.1 1073.86 145.7 1073.86 153.9C1073.86 161.1 1074.96 167.5 1077.16 173.1C1079.56 178.7 1082.96 183.1 1087.36 186.3C1091.96 189.3 1097.46 190.8 1103.86 190.8Z" fill="black"/>
</svg>
