<svg width="815" height="588" viewBox="0 0 815 588" fill="none" xmlns="http://www.w3.org/2000/svg">
<path d="M350.537 72.4179C459.118 43.5609 563.017 38.5941 643.215 53.8707C723.451 69.1547 779.784 104.657 793.582 156.574C807.379 208.491 776.104 267.276 714.043 320.378C652.012 373.454 559.355 420.725 450.775 449.582C342.194 478.439 238.295 483.406 158.098 468.129C77.8614 452.845 21.5285 417.344 7.73044 365.427C-6.06738 313.509 25.2073 254.724 87.269 201.622C149.301 148.546 241.957 101.275 350.537 72.4179Z" stroke="black"/>
<path d="M352.947 105.038C461.527 76.1808 565.426 71.214 645.624 86.4905C725.86 101.775 782.193 137.277 795.991 189.194C809.789 241.111 778.514 299.896 716.452 352.998C654.421 406.074 561.764 453.345 453.184 482.202C344.603 511.059 240.704 516.026 160.507 500.749C80.2706 485.465 23.9376 449.964 10.1396 398.047C-3.6582 346.129 27.6165 287.344 89.6782 234.242C151.71 181.166 244.366 133.895 352.947 105.038Z" stroke="black"/>
<path d="M651 54.5C632.471 58.5431 630.694 61.8235 628.5 96C626.306 61.8235 624.529 58.5431 606 54.5C624.529 50.4569 626.306 47.1765 628.5 13C630.694 47.1765 632.471 50.4569 651 54.5Z" fill="black"/>
<path d="M100 479C72.8235 484.553 70.2174 489.059 67 536C63.7826 489.059 61.1765 484.553 34 479C61.1765 473.447 63.7826 468.941 67 422C70.2174 468.941 72.8235 473.447 100 479Z" fill="black"/>
</svg>
